<?xml version="1.0" standalone="no"?>
<!DOCTYPE svg PUBLIC "-//W3C//DTD SVG 20010904//EN"
 "http://www.w3.org/TR/2001/REC-SVG-20010904/DTD/svg10.dtd">
<svg version="1.0" xmlns="http://www.w3.org/2000/svg"
 width="651.000000pt" height="507.000000pt" viewBox="0 0 651.000000 507.000000"
 preserveAspectRatio="xMidYMid meet">

<g transform="translate(0.000000,507.000000) scale(0.100000,-0.100000)"
fill="#000000" stroke="none">
<path d="M4738 4995 c-31 -18 -73 -45 -93 -60 -33 -26 -52 -21 -20 5 8 7 15
17 15 23 0 5 -10 -2 -21 -17 -12 -15 -31 -32 -43 -37 -11 -5 -32 -17 -46 -26
-26 -19 -22 -6 8 30 23 27 -1 20 -44 -12 -65 -49 -80 -64 -105 -106 -23 -38
-23 -39 -30 -15 -4 19 -7 14 -10 -23 -4 -51 5 -84 15 -51 5 20 -2 -97 -10
-156 l-5 -35 16 27 c8 15 24 32 35 38 22 12 23 14 -40 -115 -32 -65 -35 -68
-38 -40 -5 40 -21 56 -28 27 -7 -26 -23 -29 -25 -4 -1 9 -5 -8 -9 -38 -7 -58
10 -164 29 -183 6 -6 11 -19 11 -29 0 -27 -33 -7 -64 39 -20 28 -27 33 -31 21
-8 -20 18 -73 54 -111 l26 -29 -27 7 c-16 4 -28 5 -28 1 0 -8 50 -58 82 -81
24 -17 27 -24 20 -50 -8 -28 -11 -30 -49 -27 -30 3 -56 -4 -99 -26 -85 -44
-102 -58 -87 -73 10 -10 14 -9 19 4 3 9 17 23 30 32 22 14 21 10 -11 -36 -21
-31 -44 -53 -56 -54 -29 -2 -33 -11 -39 -73 -4 -49 -8 -57 -24 -54 -17 3 -18
-1 -12 -44 3 -27 13 -52 23 -59 13 -10 18 -29 19 -77 1 -34 7 -76 13 -92 6
-16 10 -30 8 -32 -4 -4 -90 106 -98 125 -5 12 -11 10 -33 -12 -15 -15 -33 -24
-39 -21 -7 4 -9 3 -4 -1 4 -5 0 -16 -8 -25 -8 -9 -28 -41 -45 -71 -19 -34 -30
-47 -30 -34 0 11 16 44 35 74 19 29 35 54 35 56 0 10 -88 -28 -118 -52 -34
-25 -34 -26 -27 -3 7 22 5 23 -26 16 -19 -3 -62 -18 -96 -33 -46 -19 -63 -31
-63 -45 0 -16 -3 -17 -20 -8 -15 8 -26 7 -46 -6 -14 -10 -45 -17 -69 -17 -25
0 -46 -6 -49 -12 -2 -7 -35 -16 -73 -20 -37 -4 -77 -9 -88 -11 -53 -12 -92
-12 -110 0 -27 17 -112 28 -120 16 -3 -6 6 -10 22 -11 17 0 -6 -10 -57 -25
-92 -26 -125 -30 -115 -14 9 14 -41 13 -68 -1 -16 -9 -22 -9 -25 0 -2 6 -18
11 -35 10 -27 0 -29 -2 -12 -9 19 -8 19 -9 -2 -9 -13 -1 -23 -5 -23 -10 0 -6
-16 -7 -34 -4 -25 4 -40 1 -51 -11 -9 -9 -31 -16 -48 -17 l-32 0 43 -20 c83
-36 25 -76 -114 -78 -99 -1 -156 -12 -150 -27 3 -8 -1 -14 -10 -14 -8 0 -31
-11 -52 -23 -20 -13 -62 -33 -92 -45 -30 -11 -91 -37 -135 -56 -44 -20 -85
-36 -92 -36 -7 0 -34 -13 -60 -30 -26 -16 -57 -30 -70 -30 -13 0 -23 -5 -23
-12 0 -6 -8 -20 -18 -31 -17 -19 -16 -20 11 -13 15 3 27 3 27 -2 0 -10 -85
-52 -106 -52 -8 0 -36 -11 -62 -24 -26 -13 -73 -26 -105 -29 -51 -4 -59 -3
-69 17 -11 21 -11 21 13 2 13 -10 -20 24 -73 76 l-98 95 0 64 c0 60 -2 67 -33
97 -20 20 -43 32 -59 32 -16 0 -28 6 -30 16 -3 13 -138 81 -138 69 0 -2 21
-36 46 -75 63 -98 105 -186 98 -205 -6 -14 -9 -14 -23 -2 -21 19 -81 49 -81
41 0 -3 8 -18 19 -32 10 -15 27 -54 39 -87 l20 -60 -22 -3 c-13 -2 -63 13
-112 32 -49 19 -179 69 -289 111 -299 114 -304 116 -323 140 -9 13 -24 36 -33
52 -11 19 -32 34 -69 47 -30 11 -65 31 -79 45 l-25 26 17 -27 c9 -15 17 -38
17 -50 -1 -19 -4 -16 -18 14 -23 47 -51 78 -72 78 -21 0 -44 46 -29 56 8 4 7
9 -2 15 -27 17 -27 8 -1 -87 22 -84 24 -98 11 -108 -8 -6 -21 -27 -29 -46 -7
-19 -17 -39 -22 -44 -4 -6 -8 -17 -8 -25 0 -22 62 -121 77 -121 6 0 27 9 46
20 l34 20 58 -30 c31 -16 70 -30 87 -30 16 0 38 -5 49 -11 11 -5 68 -24 127
-40 191 -53 398 -132 507 -193 39 -22 86 -45 105 -52 28 -10 36 -18 37 -41 6
-65 27 -142 56 -200 28 -56 35 -63 60 -63 37 0 96 36 106 64 7 19 11 16 31
-24 43 -86 89 -112 131 -74 16 14 19 14 37 -4 20 -20 91 -23 128 -4 112 55
111 54 148 41 42 -15 45 -35 21 -115 -23 -77 -19 -106 30 -201 25 -48 48 -105
52 -126 4 -27 12 -41 28 -47 35 -13 63 -122 34 -132 -9 -3 -9 -13 0 -40 11
-35 43 -58 79 -58 33 0 60 -29 67 -71 4 -22 22 -86 40 -143 57 -178 56 -226
-5 -285 -14 -14 -24 -28 -23 -32 4 -12 -46 -44 -109 -72 -62 -28 -87 -26 -198
14 -71 25 -185 39 -229 27 -19 -6 -46 -7 -60 -3 -104 25 -112 25 -156 5 -24
-11 -51 -20 -59 -20 -20 0 -56 -39 -56 -62 0 -9 9 -22 20 -28 23 -13 25 -23 6
-42 -17 -18 -4 -54 23 -63 12 -3 21 -15 21 -25 0 -10 11 -25 25 -34 14 -9 25
-25 25 -35 0 -24 60 -85 96 -98 85 -32 559 -47 693 -23 93 17 180 -7 448 -121
54 -23 100 -44 103 -48 3 -3 13 -7 23 -9 64 -11 316 -122 423 -187 l122 -73
188 -23 c215 -26 217 -25 379 46 55 25 192 81 305 125 112 44 206 84 210 88 3
4 24 32 47 62 23 30 56 91 73 135 29 72 32 88 27 155 -2 41 -8 84 -13 95 -5
13 7 7 38 -21 37 -31 69 -47 150 -72 159 -50 241 -64 383 -65 l130 -2 83 53
c120 77 213 117 327 142 55 12 138 30 185 40 166 37 227 43 418 45 105 1 194
4 197 7 3 3 -59 29 -137 58 -156 59 -228 105 -228 146 0 24 -17 44 -64 77 -14
10 -26 27 -26 39 0 29 -64 86 -103 92 -18 3 -71 8 -120 12 l-88 6 -20 41 c-42
82 -57 149 -64 292 -6 108 -11 144 -24 159 -9 10 -19 46 -23 85 -9 92 -17 119
-44 146 -16 16 -24 36 -24 58 0 47 -26 68 -72 60 -33 -5 -38 -3 -43 18 -6 26
27 71 118 158 37 36 47 53 47 78 0 26 14 47 73 110 40 43 92 106 115 141 41
59 42 62 20 62 -13 0 -40 -4 -60 -9 -24 -6 -38 -5 -38 1 0 5 23 56 50 114 28
58 59 140 71 182 11 42 22 85 25 95 7 24 -26 23 -95 -3 -29 -12 -55 -20 -56
-18 -3 3 49 513 62 612 l6 49 -34 -6 c-33 -7 -82 -50 -137 -121 -12 -16 -26
-26 -30 -22 -10 10 -16 461 -7 541 l6 64 55 22 c59 25 73 43 22 28 -17 -5 -34
-6 -37 -3 -9 9 57 60 128 101 56 32 64 34 73 20 6 -12 22 -17 49 -17 67 0 159
-51 159 -87 0 -25 22 -2 44 48 21 45 24 47 39 31 16 -15 17 -15 17 0 0 9 -4
28 -10 42 -13 35 1 34 61 -5 44 -28 87 -73 116 -123 11 -20 12 -19 13 11 0 45
-73 155 -155 231 -83 78 -108 94 -164 108 -45 11 -45 12 -11 12 19 1 46 -5 60
-13 28 -16 90 -20 90 -6 0 5 -21 34 -47 66 -32 38 -68 67 -108 87 -86 44 -136
78 -131 87 3 4 -5 18 -17 30 -21 19 -41 22 -208 32 -177 10 -229 19 -229 37 0
11 67 32 106 33 60 2 -18 17 -96 18 -68 2 -73 3 -56 16 11 8 31 16 45 16 19 1
15 4 -14 10 -59 12 -251 -16 -348 -51 -92 -34 -87 -33 -87 -21 0 4 27 20 60
35 66 30 77 39 30 26 -17 -5 -64 -8 -105 -7 -59 1 -72 4 -63 14 17 20 -2 14
-64 -22z m-217 -172 c-14 -27 -73 -84 -79 -78 -5 5 76 95 85 95 2 0 -1 -8 -6
-17z m-136 -780 c-7 -21 -20 -39 -29 -41 -12 -3 -9 6 11 37 15 23 27 41 29 41
1 0 -4 -17 -11 -37z m48 -33 c-4 -16 -9 -18 -25 -9 -17 9 -18 13 -7 20 24 15
37 10 32 -11z m34 -28 c-10 -10 -17 -22 -17 -27 0 -25 60 -89 138 -147 72 -55
97 -68 146 -77 33 -6 61 -10 63 -8 1 2 -13 19 -32 37 -19 19 -35 37 -35 42 0
4 23 -1 50 -12 76 -30 193 -28 275 6 35 14 83 30 105 37 43 12 52 24 86 105 9
23 18 41 20 40 1 -2 -4 -28 -12 -58 -16 -63 -44 -229 -44 -262 0 -17 3 -19 9
-10 6 10 10 4 14 -18 4 -17 11 -29 17 -25 6 4 10 -5 10 -20 0 -15 4 -24 10
-20 6 4 10 -5 10 -20 0 -20 4 -26 15 -21 13 4 15 -8 15 -74 0 -44 3 -80 8 -80
4 0 5 -21 3 -47 -4 -40 -5 -44 -12 -23 -4 14 -7 48 -8 75 -1 53 -18 127 -31
135 -4 3 -17 24 -29 48 -20 39 -23 41 -44 30 -19 -10 -19 -13 -5 -16 15 -3 16
-12 11 -70 -8 -93 -46 -160 -87 -153 -5 1 -17 -6 -27 -15 -24 -21 -24 -12 -2
24 21 33 11 24 -51 -50 -45 -55 -68 -69 -80 -49 -4 5 2 7 13 4 14 -3 30 12 65
61 40 57 45 69 36 87 -10 18 -17 20 -58 14 -26 -4 -64 -13 -85 -20 -37 -13
-38 -12 -22 5 15 17 13 18 -30 25 -41 6 -51 3 -81 -20 -24 -18 -39 -24 -47
-17 -7 5 -44 20 -84 33 -78 24 -80 26 -107 122 -10 32 -26 67 -36 77 -16 16
-17 24 -9 55 11 39 -4 79 -71 191 l-30 51 31 42 c17 24 33 40 36 37 4 -3 -1
-14 -10 -24z m-67 -7 c0 -8 -4 -15 -10 -15 -5 0 -10 7 -10 15 0 8 5 15 10 15
6 0 10 -7 10 -15z m-125 -411 c-4 -36 -3 -60 5 -69 9 -10 7 -15 -8 -19 -11 -4
-27 -15 -37 -26 -17 -19 -76 -29 -74 -12 0 4 16 34 34 67 19 33 39 72 45 88 7
15 19 27 27 27 13 0 14 -10 8 -56z m1002 24 c-3 -7 -5 -2 -5 12 0 14 2 19 5
13 2 -7 2 -19 0 -25z m-1050 0 c-3 -8 -6 -5 -6 6 -1 11 2 17 5 13 3 -3 4 -12
1 -19z m-37 -54 c-16 -19 -29 -18 -37 2 -4 11 2 23 18 35 23 18 24 18 27 -2 2
-11 -2 -27 -8 -35z m1045 -52 c3 -20 11 -45 16 -55 14 -25 3 -66 -31 -120 -25
-40 -74 -82 -68 -60 1 4 -4 20 -11 34 -12 24 -10 31 25 79 31 43 39 63 42 111
5 64 18 70 27 11z m-1195 -96 c0 -4 -4 -4 -10 -1 -5 3 -10 2 -10 -4 0 -5 4
-12 9 -15 5 -3 11 -15 14 -26 10 -38 -15 -8 -39 47 -32 71 -30 81 6 40 17 -19
30 -38 30 -41z m230 14 c0 -12 -28 -25 -36 -17 -9 9 6 27 22 27 8 0 14 -5 14
-10z m25 -65 c-18 -37 -30 -44 -38 -21 -7 18 3 57 13 51 4 -3 14 2 21 11 20
25 23 0 4 -41z m567 32 c-11 -12 -28 -39 -36 -59 -9 -20 -20 -39 -26 -43 -5
-3 -10 -11 -10 -16 0 -6 5 -7 10 -4 6 3 10 -1 10 -9 0 -9 -9 -16 -21 -16 -11
0 -18 4 -15 9 3 4 -7 6 -22 3 -25 -5 -26 -4 -9 12 9 10 17 26 17 37 0 10 6 19
14 19 10 0 12 7 8 23 -5 20 -4 21 12 8 14 -12 19 -12 29 -1 10 10 9 12 -5 7
-14 -5 -18 -1 -18 18 0 18 4 23 15 19 8 -4 15 -11 15 -17 0 -6 10 -1 22 11 29
29 38 29 10 -1z m583 -43 c-8 -21 -22 -65 -30 -96 -10 -35 -22 -58 -30 -58
-14 0 1 48 50 164 21 49 29 42 10 -10z m-1342 -30 c-3 -8 -9 -14 -13 -14 -14
0 -19 43 -8 64 11 20 12 20 19 -7 4 -16 5 -35 2 -43z m1163 19 c-4 -45 -13
-71 -35 -96 -15 -18 -16 -18 -22 0 -3 11 6 40 25 75 17 32 32 58 33 58 2 0 1
-17 -1 -37z m-1122 12 c3 -8 3 -22 0 -30 -4 -11 0 -15 16 -15 23 0 22 0 -3
-20 -14 -11 -28 -20 -31 -20 -4 0 -6 23 -5 50 2 49 11 64 23 35z m794 -71 c9
-19 9 -30 1 -47 -16 -30 -28 -37 -64 -37 -28 1 -29 2 -12 14 15 12 16 18 8 34
-9 17 -7 24 15 41 34 27 38 26 52 -5z m-1138 -4 c0 -5 -2 -10 -4 -10 -3 0 -8
5 -11 10 -3 6 -1 10 4 10 6 0 11 -4 11 -10z m427 -1 c8 -8 17 -8 33 1 12 6 24
10 26 8 7 -8 -50 -44 -106 -67 -30 -13 -61 -28 -67 -33 -9 -7 -13 -7 -13 1 0
7 21 22 47 33 48 21 84 48 64 48 -6 0 -11 5 -11 10 0 13 13 13 27 -1z m-1155
-16 c10 -9 18 -21 18 -28 0 -7 -32 -40 -70 -75 -39 -34 -69 -65 -66 -68 3 -2
12 1 20 8 9 6 20 10 26 8 6 -2 -8 -13 -32 -26 -42 -21 -43 -21 -52 -3 -6 15 0
27 33 56 40 36 54 76 31 90 -5 3 -10 -1 -10 -9 0 -33 -86 -50 -110 -21 -20 25
-2 37 47 29 40 -6 45 -4 50 15 3 12 15 23 27 26 11 2 30 6 41 8 11 3 22 5 24
6 3 0 13 -6 23 -16z m2258 8 c0 -6 -4 -13 -10 -16 -5 -3 -10 1 -10 9 0 9 5 16
10 16 6 0 10 -4 10 -9z m-956 -16 c-10 -26 -139 -105 -194 -120 -65 -17 -60
-17 -60 -7 0 4 27 21 60 37 33 17 60 35 60 40 0 6 12 18 26 29 21 15 28 16 34
6 6 -10 15 -8 37 8 33 25 44 27 37 7z m-1554 -36 c38 -39 70 -100 70 -134 0
-39 -15 -23 -39 44 -12 33 -34 73 -50 90 -38 41 -22 40 19 0z m-20 -28 c39
-36 62 -103 44 -121 -7 -7 -199 -50 -222 -50 -3 0 9 11 28 25 24 18 37 22 46
14 19 -15 52 -2 60 24 3 12 16 32 27 45 11 12 17 22 12 22 -15 0 -65 -53 -65
-68 0 -11 -3 -12 -14 -3 -8 7 -26 9 -43 6 -23 -5 -25 -4 -10 5 10 6 28 13 40
14 22 2 87 60 87 77 0 5 -16 19 -35 30 -40 24 -44 29 -14 22 12 -3 38 -22 59
-42z m995 28 c-4 -5 -1 -9 6 -9 9 0 9 -4 -1 -15 -9 -11 -9 -22 0 -52 26 -81
68 -93 156 -42 38 21 52 26 48 15 -3 -9 -28 -26 -55 -38 -48 -22 -63 -38 -35
-38 8 0 16 -6 19 -14 4 -11 -1 -11 -31 -2 -81 25 -98 45 -117 136 -12 58 -10
84 6 74 5 -3 7 -10 4 -15z m-1187 -15 c46 -32 19 -83 -53 -100 l-30 -7 34 24
c53 37 61 56 32 80 -28 23 -15 26 17 3z m1730 -33 c-12 -19 -68 -51 -90 -51
-18 0 11 25 57 49 48 26 48 26 33 2z m1072 -38 c-5 -21 -15 -58 -23 -83 -11
-33 -15 -38 -16 -20 0 14 6 43 14 65 8 22 15 48 15 58 0 9 4 17 9 17 4 0 5
-17 1 -37z m-1025 7 c-10 -11 -21 -18 -23 -15 -3 3 3 12 14 20 27 20 30 18 9
-5z m968 -45 c-15 -40 -26 -52 -63 -71 -25 -13 -51 -24 -58 -24 -8 0 19 36 60
79 40 44 74 76 76 72 1 -5 -5 -30 -15 -56z m-4189 -47 c21 -30 20 -45 -3 -43
-12 1 -34 23 -55 53 l-34 52 38 -20 c21 -11 46 -30 54 -42z m-914 28 c0 -3 -4
-8 -10 -11 -5 -3 -10 -1 -10 4 0 6 5 11 10 11 6 0 10 -2 10 -4z m2615 -36 c-3
-5 -13 -10 -21 -10 -8 0 -12 5 -9 10 3 6 13 10 21 10 8 0 12 -4 9 -10z m-1631
-16 c20 -19 21 -54 2 -54 -15 0 -26 21 -26 51 0 23 4 24 24 3z m4111 -11 c-7
-30 -32 -63 -47 -63 -14 0 2 42 25 68 27 29 31 28 22 -5z m-2560 7 c-11 -5
-27 -9 -35 -9 -13 -1 -13 0 0 9 8 5 24 9 35 9 l20 0 -20 -9z m275 -20 c44 -24
80 -136 50 -155 -14 -8 -13 -116 1 -171 8 -32 16 -44 26 -40 7 3 16 -1 20 -10
4 -12 10 -8 24 15 28 47 96 91 138 91 20 -1 52 2 71 5 29 5 41 1 73 -25 20
-17 37 -39 37 -49 0 -10 10 -26 21 -37 22 -19 22 -19 8 3 -11 18 -11 26 1 47
18 34 34 33 27 -1 -3 -15 -1 -36 4 -45 7 -13 6 -18 -3 -19 -7 0 0 -5 15 -11
18 -6 26 -15 23 -24 -3 -8 -1 -14 3 -14 5 0 11 6 13 12 4 10 14 8 41 -7 20
-11 37 -22 37 -26 0 -4 13 -9 30 -12 22 -5 31 -14 36 -34 4 -15 16 -41 28 -58
20 -28 27 -66 26 -132 0 -65 -7 -72 -92 -97 -72 -21 -71 -21 -52 9 9 14 14 28
12 31 -3 2 -34 -8 -69 -23 l-64 -28 50 -6 50 -6 -59 -1 -59 -2 6 -35 c7 -42
-6 -54 -21 -20 -18 40 -65 34 -114 -15 -23 -22 -42 -40 -43 -40 -1 0 0 12 3
26 3 17 1 25 -5 21 -6 -4 -27 0 -47 8 -27 11 -42 28 -62 67 -15 29 -43 73 -64
98 -21 25 -57 74 -81 110 -23 36 -66 92 -94 125 -63 73 -225 283 -231 299 -8
21 216 186 254 186 7 0 22 -4 32 -10z m-2975 -32 c6 -13 19 -22 28 -22 13 1
15 -2 6 -18 -11 -20 -11 -20 -29 -2 -10 11 -22 33 -26 49 -7 32 2 29 21 -7z
m203 -33 c7 -7 -9 -25 -21 -25 -7 0 -18 10 -25 21 -13 21 -12 21 15 14 15 -3
30 -8 31 -10z m5101 -61 c-30 -30 -47 -52 -38 -49 10 4 20 2 23 -3 8 -14 -21
-35 -39 -28 -9 3 -13 2 -10 -4 3 -6 0 -10 -9 -10 -8 0 -23 -3 -33 -6 -10 -4
20 32 66 79 47 48 87 84 90 81 3 -2 -20 -29 -50 -60z m-2159 -15 c0 -28 -16
-31 -30 -5 -15 30 -5 53 16 35 8 -6 14 -20 14 -30z m-2030 -106 c0 -5 11 -25
25 -45 30 -44 30 -44 5 -51 -25 -6 -34 6 -54 75 -21 72 -20 76 4 50 11 -12 20
-25 20 -29z m130 -20 c0 -8 14 -19 31 -25 l30 -10 -20 -22 c-12 -13 -19 -25
-16 -28 3 -3 1 -16 -3 -29 -8 -21 -11 -16 -22 36 -7 33 -19 72 -26 87 -8 15
-14 33 -14 40 1 18 40 -30 40 -49z m4053 23 c3 -8 -1 -17 -9 -20 -23 -9 -24
-8 -24 14 0 23 25 27 33 6z m-3663 -21 c0 -10 -11 -15 -30 -16 -16 -1 -34 -3
-40 -4 -5 -1 -16 -3 -22 -4 -19 -2 81 -63 117 -72 30 -7 30 -7 3 -8 -15 -1
-30 -6 -33 -11 -4 -7 -29 8 -61 35 -30 26 -54 43 -54 38 0 -13 -74 -33 -84
-23 -11 11 -13 10 39 35 98 47 165 59 165 30z m518 -10 c5 -4 -40 -122 -62
-159 -26 -45 -128 -146 -146 -146 -13 0 -150 80 -150 87 0 3 14 21 30 40 17
18 30 38 30 44 0 41 131 134 174 124 12 -3 32 1 46 9 20 11 64 12 78 1z m-368
-235 c0 -5 -2 -10 -4 -10 -3 0 -8 5 -11 10 -3 6 -1 10 4 10 6 0 11 -4 11 -10z
m2999 -195 c7 -30 26 -79 42 -110 16 -30 29 -67 29 -83 0 -20 11 -38 36 -60
35 -31 36 -34 32 -89 -5 -60 6 -117 29 -144 7 -8 13 -21 13 -27 0 -6 8 -18 17
-28 10 -9 18 -22 18 -28 1 -22 35 -73 59 -90 15 -9 26 -24 26 -33 0 -23 40
-80 64 -91 11 -4 25 -26 31 -47 7 -27 22 -47 45 -63 40 -27 53 -45 48 -71 -3
-18 -9 -17 -88 14 -47 19 -188 72 -315 118 -126 47 -243 90 -259 96 -27 11
-28 12 -12 36 21 32 21 117 0 181 -19 58 -70 115 -125 139 -21 10 -39 23 -39
29 0 38 29 99 69 146 60 72 248 260 259 260 5 0 14 -25 21 -55z m-2611 -492
c-10 -2 -28 -2 -40 0 -13 2 -5 4 17 4 22 1 32 -1 23 -4z m420 -433 c36 -60 41
-76 36 -108 l-6 -37 141 -74 c78 -41 140 -78 138 -84 -1 -5 -34 -19 -72 -31
-39 -13 -84 -30 -101 -39 -33 -17 -95 -90 -127 -147 -10 -18 -20 -30 -24 -27
-7 8 39 80 75 120 24 25 19 40 -5 16 -9 -9 -163 -52 -169 -47 -1 2 -9 30 -18
63 -13 52 -13 61 -1 68 11 6 15 27 15 81 0 41 7 93 16 120 14 41 15 51 3 73
-13 23 -11 27 14 47 17 14 27 31 27 49 0 15 4 27 8 27 4 0 27 -32 50 -70z
m2082 -10 c52 -20 107 -40 121 -43 24 -6 26 -10 22 -54 -6 -60 15 -83 102
-113 l60 -20 -103 4 c-109 5 -144 19 -235 89 -34 27 -107 147 -107 177 0 14
15 9 140 -40z m519 -156 c-36 -52 -52 -53 -20 0 18 29 27 38 48 45 1 1 -12
-20 -28 -45z m49 1 c-6 -14 -13 -23 -15 -21 -5 5 15 46 22 46 3 0 -1 -11 -7
-25z m-623 -146 c66 -59 135 -73 353 -74 168 -1 195 -3 203 -17 15 -26 101
-75 155 -86 43 -10 144 -57 144 -68 0 -2 -76 -4 -170 -4 -165 0 -170 1 -170
21 0 11 -5 29 -11 41 -25 47 -145 64 -203 29 -135 -83 -268 -23 -342 156 -18
41 -5 42 41 2z m-1785 -195 c-22 -44 -38 -68 -34 -54 8 32 66 142 71 136 2 -2
-14 -39 -37 -82z m-1200 32 c0 -3 -4 -8 -10 -11 -5 -3 -10 -1 -10 4 0 6 5 11
10 11 6 0 10 -2 10 -4z m816 -11 c-11 -8 -27 -15 -35 -14 -9 0 -2 7 14 14 39
18 45 18 21 0z m299 -64 c-20 -39 -40 -52 -30 -20 7 20 31 47 43 49 1 0 -4
-13 -13 -29z m-1350 9 c-3 -5 -17 -10 -31 -10 -14 0 -22 4 -19 10 3 6 17 10
31 10 14 0 22 -4 19 -10z m645 -40 c-19 -16 -39 -29 -45 -29 -5 0 6 13 25 29
19 17 39 30 45 30 5 0 -6 -14 -25 -30z m643 -90 c-3 -12 -8 -19 -11 -16 -5 6
5 36 12 36 2 0 2 -9 -1 -20z"/>
<path d="M4365 4839 c-4 -6 -5 -12 -2 -15 2 -3 7 2 10 11 7 17 1 20 -8 4z"/>
<path d="M4332 4643 c-5 -10 -12 -31 -15 -48 -5 -24 -2 -22 14 13 20 42 21 73
1 35z"/>
<path d="M6037 4266 c-4 -32 -5 -61 -3 -63 7 -7 19 82 14 103 -2 11 -7 -8 -11
-40z"/>
<path d="M5698 4253 c7 -3 16 -2 19 1 4 3 -2 6 -13 5 -11 0 -14 -3 -6 -6z"/>
<path d="M6005 4170 c-3 -5 -2 -10 4 -10 5 0 13 5 16 10 3 6 2 10 -4 10 -5 0
-13 -4 -16 -10z"/>
<path d="M3966 3652 c-3 -5 -2 -22 3 -38 l8 -29 5 33 c4 31 -5 52 -16 34z"/>
<path d="M2457 3143 c-12 -11 -8 -23 7 -23 7 0 19 7 26 15 10 12 9 15 -7 15
-11 0 -23 -3 -26 -7z"/>
</g>
</svg>
